<svg id="Layer_4" data-name="Layer 4" xmlns="http://www.w3.org/2000/svg" viewBox="0 0 658.08 510.17"><defs><style>.cls-1,.cls-3{fill:#0e00dd;}.cls-1,.cls-2,.cls-4,.cls-6,.cls-7{stroke:#000;stroke-miterlimit:10;}.cls-2{fill:none;}.cls-4,.cls-5{fill:#fff;}.cls-7{fill:#646470;}</style></defs><title>firkant</title><g id="Layer_2" data-name="Layer 2"><polygon class="cls-1" points="295.66 361.78 295.66 467.31 269.26 467.31 270.26 360.83 295.66 361.78"/><polygon class="cls-1" points="258.7 459.78 262.05 361.84 269.26 360.45 269.26 467.08 258.7 459.78"/><path class="cls-2" d="M330.18,611.41" transform="translate(-34.74 -144.33)"/><polygon class="cls-1" points="269.03 467.31 308.93 484.11 323.59 475.35 295.43 467.31 269.03 467.31"/><polygon class="cls-1" points="269.26 497.25 258.7 497.25 258.7 459.28 269.26 467.31 269.26 497.25"/><polygon class="cls-1" points="386 353.01 386 458.55 359.6 458.55 360.6 352.06 386 353.01"/><polygon class="cls-1" points="349.04 451.01 352.39 353.07 359.6 351.69 359.6 458.32 349.04 451.01"/><path class="cls-2" d="M420.52,602.65" transform="translate(-34.74 -144.33)"/><polygon class="cls-1" points="359.38 458.55 399.27 475.35 413.93 466.58 385.77 458.55 359.38 458.55"/><polygon class="cls-1" points="359.6 488.49 349.04 488.49 349.04 450.51 359.6 458.55 359.6 488.49"/><polygon class="cls-1" points="268.68 181.75 421.79 181.75 415.33 422.98 268.68 430.06 268.68 181.75"/><polygon class="cls-1" points="396.63 138.66 243.51 148.15 268.74 181.75 421.85 181.75 396.63 138.66"/><polygon class="cls-1" points="268.68 430.49 238.17 376.88 243.45 148.29 268.68 181.88 268.68 430.49"/><polyline class="cls-1" points="269.26 467.08 309.15 483.88 309.15 509.44 269.26 497.02"/><polyline class="cls-1" points="308.93 484.11 323.59 475.35 326.52 509.67 323.59 475.35 326.52 509.67 308.86 509.67"/><polygon class="cls-1" points="359.02 458.16 359.02 486.27 399.5 500.32 399.5 475.45 359.02 458.16"/><polyline class="cls-1" points="399.5 500.68 415.92 491.91 414.16 466.35 399.5 475.11 399.5 500.68 359.6 488.26 359.6 458.18"/></g><g id="Layer_3" data-name="Layer 3"><polygon class="cls-1" points="262.87 310.35 261.41 268.36 169.13 289.32 146.07 172.1 123.72 183.49 148.95 337.45 262.87 310.35"/><polygon class="cls-1" points="158.34 161.58 146.07 172.97 169.13 290.19 178.51 267.48 158.34 161.58"/><polygon class="cls-1" points="241.23 255.21 178.51 267.48 169.13 290.19 261.41 272.74 241.23 255.21"/><path d="M571.46,278.3,548.29,404l-93,40.83L454,408l69.4-20.23.35-.07.06-.44,20.12-106.34,27.57-2.63m.76-.8-28.8,2.7L523.24,387.05l-69.87,20.38,1.35,38.42,94.1-41.34,23.41-127Z" transform="translate(-34.74 -144.33)"/><polygon class="cls-3" points="425.9 245.64 479.11 228.26 487.97 242.5 417.92 262.66 425.9 245.64"/><path d="M513.74,373l8.45,13.58-68.93,19.87,7.57-16.21L513.74,373m.23-.8-53.5,17.46-8.39,18,71.16-20.45-9.27-15Z" transform="translate(-34.74 -144.33)"/><polygon class="cls-3" points="479.52 227.75 490.67 137.99 508.32 136.31 488.32 241.92 479.52 227.75"/><path d="M542.66,281.08,522.95,385.44,514.62,372l11.09-89.32,17-1.61m.76-.8L525.18,282,514,372.22l9.27,14.9,20.18-106.85Z" transform="translate(-34.74 -144.33)"/><path class="cls-4" d="M676,491.27" transform="translate(-34.74 -144.33)"/><polygon class="cls-1" points="123.96 191.82 148.48 178.67 143.43 126.16 113.87 141.06 123.96 191.82"/><polygon class="cls-1" points="157.1 167.28 148.48 178.67 143.43 126.16 154.23 115.72 157.1 167.28"/><polygon class="cls-1" points="113.87 141.06 120.38 129.66 154.23 115.72 143.43 126.16 113.87 141.06"/><polygon class="cls-1" points="148.48 145.44 150.65 156.83 173.71 145.44 169.36 134.05 148.48 145.44"/><polygon class="cls-1" points="178.75 138.43 173.71 145.44 169.36 134.05 174.41 126.16 178.75 138.43"/><polygon class="cls-1" points="148.48 145.44 155.34 135.8 174.41 126.16 169.36 134.05 148.48 145.44"/><polygon class="cls-1" points="114.97 112.37 123.78 112.37 123.78 130.7 114.97 134.21 114.97 112.37"/><polygon class="cls-1" points="119.65 107.25 115.48 112.37 123.87 112.37 125.98 107.25 119.65 107.25"/><path class="cls-2" d="M158.7,274.87" transform="translate(-34.74 -144.33)"/><polygon class="cls-1" points="126.12 124 123.78 131.5 123.78 111.68 126.12 106 126.12 124"/><polygon class="cls-1" points="129.06 110.18 137.85 110.18 137.85 128.51 129.06 132.01 129.06 110.18"/><polygon class="cls-1" points="133.37 105.06 129.15 110.18 137.59 110.18 139.65 105.06 133.37 105.06"/><polygon class="cls-1" points="140.2 121.85 137.85 128.79 137.85 110.46 140.2 105.2 140.2 121.85"/><polygon class="cls-1" points="141.96 108.72 149.59 108.72 149.59 122.08 141.96 124.64 141.96 108.72"/><polygon class="cls-1" points="145.93 105.06 142.16 108.72 149.66 108.72 151.52 105.06 145.93 105.06"/><polygon class="cls-1" points="151.35 116.93 149.59 121.58 149.59 109.43 151.35 105.98 151.35 116.93"/><polygon class="cls-3" points="486.5 100.38 542.29 95.05 536.89 132.51 491.43 136.82 486.5 100.38"/><path d="M576.68,239.81l-5.22,36.74-45,4.24L521.6,245l55.09-5.19m.7-.8-56.49,5.33,5,37.25,45.93-4.38,5.51-38.2Z" transform="translate(-34.74 -144.33)"/><polygon class="cls-3" points="501.58 87.17 546.57 86.95 542.47 94.25 487.2 99.51 501.58 87.17"/><path d="M580.73,231.35l-3.7,6.5L523,243l13.38-11.47,44.23-.15m1.3-.58-45.64.22-15.37,13.15,56.49-5.33,4.52-8Z" transform="translate(-34.74 -144.33)"/><polygon class="cls-3" points="468.9 113.67 487.44 112.06 488.26 125.14 469.66 126.6 468.9 113.67"/><path d="M521.95,256.76l.76,12.42-18,1.39-.76-12.2,18-1.61m.53-.8-19.12,1.68.82,13.66,19.18-1.46L522.48,256Z" transform="translate(-34.74 -144.33)"/><polygon class="cls-3" points="471.95 101.69 485.91 100.38 487.62 111.19 469.02 112.94 471.95 101.69"/><path d="M520.42,245.15l1.58,10-17.83,1.68,2.76-10.44,13.49-1.24m.47-.8-14.37,1.39-3.17,12,19.36-1.83-1.82-11.54Z" transform="translate(-34.74 -144.33)"/><polygon class="cls-3" points="493.54 70.87 509.56 69.34 507.33 95.56 491.6 96.73 493.54 70.87"/><path d="M543.95,214.11l-2.11,25.49-15.19,1.1,1.88-25.12,15.43-1.46m.65-.8L528,214.91l-2,26.58,16.37-1.24,2.23-26.95Z" transform="translate(-34.74 -144.33)"/><polygon class="cls-3" points="501.23 63.28 513.78 62.11 509.73 68.61 494.19 70.07 501.23 63.28"/><path d="M547.88,206.88l-3.58,5.77L529.93,214l6.22-6,11.73-1.1m1.29-.88-13.32,1.24-7.86,7.6,16.6-1.61,4.58-7.23Z" transform="translate(-34.74 -144.33)"/><polyline class="cls-1" points="505.39 96.14 513.13 85.77 514.42 61.67"/><polygon class="cls-3" points="528.68 75.62 538.71 74.67 537.42 93.37 527.62 94.1 528.68 75.62"/><path d="M573.1,219.37l-1.17,18-9.27.66,1.06-17.75,9.39-.95m.65-.8-10.56,1-1.11,19.21,10.44-.73,1.23-19.5Z" transform="translate(-34.74 -144.33)"/><polygon class="cls-3" points="533.55 70.14 541.29 69.41 538.83 73.87 529.27 74.82 533.55 70.14"/><path d="M575.45,214.18l-2.05,3.72-8.56.8,3.52-3.87,7.1-.66m1.17-.88-8.45.8-5,5.48,10.56-1,2.87-5.26Z" transform="translate(-34.74 -144.33)"/><polyline class="cls-1" points="536.31 93.88 541.17 86.43 541.88 68.97"/><polygon class="cls-3" points="514.25 70.87 523.16 70.07 522.58 95.85 513.84 96.36 514.25 70.87"/><path d="M557.62,214.76,557,239.81l-8.15.51.41-24.76,8.33-.8m.59-.8-9.5.95-.47,26.15,9.33-.58L558.2,214Z" transform="translate(-34.74 -144.33)"/><polygon class="cls-3" points="518.47 63.72 525.45 63.06 523.28 69.34 514.6 70.14 518.47 63.72"/><path d="M559.73,207.75l-1.94,5.48-7.86.73,3.4-5.62,6.39-.58m.94-.8-7.57.73-4.34,7.23,9.5-.88,2.41-7.08Z" transform="translate(-34.74 -144.33)"/><polyline class="cls-1" points="521.46 96.29 525.62 86.43 525.8 62.34"/><polygon class="cls-5" points="355.79 273.98 355.79 216.94 393.92 220.59 389.81 281.87 355.79 273.98"/><path d="M390.53,361.71,428,365.21l-4,60.54L390.53,418V361.5m-.59-.6v57.7l34.61,8,4.11-62.08-38.72-3.65Z" transform="translate(-34.74 -144.33)"/><polygon class="cls-5" points="286.57 282.24 290.67 217.17 318.83 217.17 318.83 288.67 286.57 282.24"/><path d="M353,361.5v70.77l-31.62-6.35,4-64.42H353m.59-.73H324.83l-4.11,65.73,32.85,6.57v-72.3Z" transform="translate(-34.74 -144.33)"/><polygon class="cls-6" points="299.18 235.56 299.18 258.93 306.81 260.39 309.74 239.22 299.18 235.56"/><polygon class="cls-6" points="370.75 242.87 370.75 260.39 380.72 259.67 380.72 239.22 370.75 242.87"/><polygon class="cls-6" points="308.34 193.94 298.95 201.97 321.25 214.38 325.94 208.54 308.34 193.94"/><polygon class="cls-6" points="342.66 206.13 353.69 214.02 380.5 199.19 374.22 193.94 342.66 206.13"/><polygon class="cls-4" points="299.18 319.05 299.18 380.4 319.13 380.4 380.72 380.4 384.24 324.17 319.13 320.22 299.18 319.05"/><line class="cls-2" x1="298.95" y1="349.5" x2="382.25" y2="353.15"/><line class="cls-2" x1="361.95" y1="322.34" x2="361.95" y2="380.04"/><line class="cls-2" x1="337.08" y1="322.47" x2="331.22" y2="380.17"/><line class="cls-2" x1="318.9" y1="320.28" x2="315.96" y2="380.17"/><polygon class="cls-3" points="446.73 224.97 471.37 215.41 478.7 244.18 454.12 253.75 446.73 224.97"/><path d="M505.87,360.17l7.16,28L489,397.57l-7.16-28,24.05-9.35m.41-.88-25.17,9.79,7.51,29.51,25.17-9.79-7.51-29.51Z" transform="translate(-34.74 -144.33)"/><polygon class="cls-3" points="439.39 249.81 434.82 219.35 445.9 224.39 453.41 253.75 439.39 249.81"/><path d="M469.91,364.26,480.36,369l7.33,28.56-13.32-3.8-4.46-29.51m-.76-1.1,4.75,31.26,14.67,4.16-7.68-30.16-11.73-5.26Z" transform="translate(-34.74 -144.33)"/><polygon class="cls-3" points="435.35 218.84 460.81 209.56 470.72 214.9 446.32 224.39 435.35 218.84"/><path d="M495.49,354.26l9.09,4.89-23.52,9.2L471,363.24l24.52-9m.06-.73-26.34,9.64,11.85,6,25.23-9.86-10.74-5.77Z" transform="translate(-34.74 -144.33)"/><polygon class="cls-1" points="189.48 276.04 220.57 272.31 220.57 232.14 189.48 232.14 189.48 276.04"/><polygon class="cls-1" points="200.34 213.88 189.67 231.41 220.42 231.41 225.44 213.88 200.34 213.88"/><polygon class="cls-3" points="417.92 263.17 488.96 242.72 508.91 136.24 537.36 133.24 514.07 259.59 420.27 301.22 417.92 263.17"/><path d="M571.7,277.94,548.58,403.63,455.25,445,453,407.79l70.63-20.3.35-.07L524,387l19.89-106,27.81-3m.76-.8-29,3.07L523.47,386.69l-71.16,20.45L454.72,446l94.33-41.85,23.41-127Z" transform="translate(-34.74 -144.33)"/><polygon class="cls-1" points="537.71 132.81 544.17 119.88 547.22 88.04 542.64 94.68 537.71 132.81"/><polyline class="cls-1" points="221.04 231.91 225.85 215.92 225.85 264.34 220.75 272.08 225.85 263.75 225.85 214.25"/><polygon class="cls-1" points="220.57 232.57 225.85 215.84 225.85 264.05 220.57 270.99 220.57 232.57"/><polygon class="cls-1" points="538.88 74.16 541.46 69.78 541.23 86.58 536.53 93.15 538.88 74.16"/><polygon class="cls-1" points="525.86 63.5 523.69 69.85 522.1 95.34 525.62 86.58 525.86 63.5"/><polygon class="cls-1" points="514.18 62.4 509.9 68.97 506.85 95.34 513.89 85.84 514.18 62.4"/></g><g id="Layer_2-2" data-name="Layer 2"><path class="cls-6" d="M89.68,314c-7.26,6.09-22.8,11-37,16.16L55,346.73l43.95-16.66c-2.25-6.91-3.25-14-4.25-21.09,1,7.09,2,14.18,4.25,21.09l5.7,31.32,12-4.91,5.49,20.91,13.75-6,4.6,14.61,13.64-6.75,3.76,13.12,22-10.34-21.6-74.7c-4.31-7.58-3.54-16.53-3.94-24.75L135.64,208.4l-21.32,6.23,2.63,14.09-14.7,3.69,3.69,17.15-15.32,3.77L97.9,278l-11.82,1.67,7.74,27.82c-.24,2.36-1.71,4.5-4.15,6.53" transform="translate(-34.74 -144.33)"/><path class="cls-7" d="M154.92,277.11l-.35-1.15c0,9.23-1.89,19.39,4.74,27.69l-1-2.67c144.38-45.24,287.31-68,428.21-58a134.54,134.54,0,0,0,2.13-27.13C447.44,214.54,302.65,236.3,154.92,277.11Z" transform="translate(-34.74 -144.33)"/><path class="cls-6" d="M661.6,237.56l-6.3.33-.7-31-9.5-.34.51-24.65-15.69.77-1.49-18.18-15.21-.82.7-14.32-24.35-4.43.9,79.48h-.06a169.66,169.66,0,0,1-1.58,23.84c.14.06.32,0,.46.1L587,328l23.67,3.64-.09-8.74,17-.79.91-11.94,15.69-.77-.35-19.07,10.71-.55-.23-25.43,8.87.35-.47-5.56.66.15c-.47-6-1-12.15-.92-18.18l-.66-.15-.16-3.35" transform="translate(-34.74 -144.33)"/><path class="cls-7" d="M691.1,249.24l-31.64-5.32c.32,5.82,1.13,11.57,2,17.4l30.87,3.91Z" transform="translate(-34.74 -144.33)"/><line class="cls-2" x1="58.43" y1="162.64" x2="63.52" y2="185.22"/><line class="cls-2" x1="122.11" y1="160.28" x2="119.1" y2="139.02"/><path class="cls-7" d="M93.86,309.13c-23.34,5-40.89,12.29-58.51,19.52a186,186,0,0,0,8.09,22.23L100.23,330C96.91,319.06,94.21,310.28,93.86,309.13Z" transform="translate(-34.74 -144.33)"/></g></svg>
